<?xml version="1.0" encoding="utf-8"?>
<!-- Generator: Adobe Illustrator 24.3.0, SVG Export Plug-In . SVG Version: 6.00 Build 0)  -->
<svg version="1.1" id="Layer_1" xmlns="http://www.w3.org/2000/svg" xmlns:xlink="http://www.w3.org/1999/xlink" x="0px" y="0px"
	 viewBox="0 0 780 440" enable-background="new 0 0 780 440" xml:space="preserve">
<g id="Background">
	<rect x="0.3" y="0.8" fill="#56ADF5" width="780" height="440"/>
</g>
<g id="Artwork">
	
		<rect x="370.9" y="218.8" fill="#3896E3" stroke="#162020" stroke-width="1.25" stroke-miterlimit="10" width="144.5" height="152.6"/>
	<path fill="none" d="M417.6,303.6c0,6.5,2.5,12.8,6.9,17.6l17.6-17.6H417.6z"/>
	<path fill="none" d="M424.5,321.2c0.2,0.2,0.4,0.4,0.5,0.6c4.5,4.5,10.6,7.2,17,7.4v-25.6L424.5,321.2z"/>
	<path fill="none" d="M442.1,329.3c6.9,0.3,13.6-2.2,18.6-7l-18.6-18.6V329.3z"/>
	<path fill="none" d="M468.7,303.6c0-6.7-2.7-13.2-7.5-18l-0.6-0.5l-18.5,18.5H468.7z"/>
	<path fill="none" d="M460.6,285.1c-5-4.7-11.7-7.2-18.5-6.9v25.4L460.6,285.1z"/>
	<path fill="none" d="M442.1,278.3c-6.4,0.2-12.5,2.9-17,7.4c-0.1,0.2-0.3,0.3-0.4,0.5l17.5,17.5L442.1,278.3z"/>
	<path fill="none" d="M424.6,286.2c-4.5,4.7-7,11-7,17.5h24.5L424.6,286.2z"/>
	<path fill="none" d="M468.7,303.6h-26.6l18.6,18.6c0.1-0.1,0.3-0.3,0.5-0.4C466,317,468.7,310.5,468.7,303.6z"/>
	<path fill="#3896E3" stroke="#162020" stroke-width="1.25" stroke-miterlimit="10" d="M442.1,329.3c-6.4-0.2-12.5-2.9-17-7.4
		c-0.2-0.2-0.4-0.4-0.5-0.6c-4.5-4.8-7-11-6.9-17.6h-26.5c-0.1,13.6,5.2,26.6,14.7,36.3l0.6,0.6c9.5,9.5,22.3,15,35.8,15.2V329.3z"
		/>
	<path fill="#A1D2F8" stroke="#162020" stroke-width="1.25" stroke-miterlimit="10" d="M424.6,286.2l-18.7-18.7
		c-9.5,9.7-14.8,22.7-14.8,36.2h26.5C417.6,297.1,420.1,290.9,424.6,286.2z"/>
	<path fill="#116DAA" stroke="#162020" stroke-width="1.25" stroke-miterlimit="10" d="M495.2,303.6c0-13.8-5.5-26.9-15.2-36.6
		c-0.2-0.2-0.4-0.4-0.6-0.6l-18.7,18.7l0.6,0.5c10,10,10,26.2,0,36.1c-0.2,0.2-0.3,0.3-0.5,0.4c-5,4.8-11.7,7.3-18.6,7v26.5
		c13.9,0.3,27.4-5,37.4-14.8l0.5-0.4C489.7,330.8,495.2,317.5,495.2,303.6z"/>
	<path fill="#FFFFFF" stroke="#002138" stroke-width="1.25" stroke-linecap="round" stroke-linejoin="round" d="M442.1,251.8
		c-13.4,0.2-26.3,5.7-35.8,15.2c-0.2,0.1-0.3,0.3-0.5,0.5l18.7,18.7c0.1-0.2,0.3-0.3,0.4-0.5c9.8-9.7,25.5-10,35.5-0.5l18.7-18.7
		C469.4,256.8,456,251.5,442.1,251.8z"/>
	<line fill="none" stroke="#162020" stroke-width="1.25" stroke-miterlimit="10" x1="382.9" y1="230.2" x2="440.7" y2="230.2"/>
	<path fill="#A1D2F8" stroke="#162020" stroke-width="1.25" stroke-miterlimit="10" d="M192.1,236.2h186.5c2.8,0,5,2.2,5,5v47.3
		c0,2.8-2.2,5-5,5H192.1c-2.8,0-5-2.2-5-5v-47.3C187.1,238.4,189.4,236.2,192.1,236.2z"/>
	<line fill="none" stroke="#162020" stroke-width="1.25" stroke-miterlimit="10" x1="232.8" y1="250.4" x2="345.1" y2="250.4"/>
	<line fill="none" stroke="#162020" stroke-width="1.25" stroke-miterlimit="10" x1="232.8" y1="265.3" x2="345" y2="265.3"/>
	<line fill="none" stroke="#162020" stroke-width="1.25" stroke-miterlimit="10" x1="232.8" y1="279.7" x2="289.3" y2="279.7"/>
	
		<rect x="294.3" y="274.6" fill="#FFFFFF" stroke="#162020" stroke-width="1.25" stroke-miterlimit="10" width="50.7" height="9.8"/>
	<path fill="#A1D2F8" stroke="#162020" stroke-width="1.25" stroke-miterlimit="10" d="M192.1,166.7h186.5c2.8,0,5,2.2,5,5v47.3
		c0,2.8-2.2,5-5,5H192.1c-2.8,0-5-2.2-5-5v-47.3C187.1,168.9,189.4,166.7,192.1,166.7z"/>
	<line fill="none" stroke="#162020" stroke-width="1.25" stroke-miterlimit="10" x1="289" y1="180.9" x2="345.1" y2="180.9"/>
	<line fill="none" stroke="#162020" stroke-width="1.25" stroke-miterlimit="10" x1="232.8" y1="195.7" x2="345" y2="195.7"/>
	<line fill="none" stroke="#162020" stroke-width="1.25" stroke-miterlimit="10" x1="232.8" y1="210.1" x2="345.1" y2="210.1"/>
	
		<rect x="232.9" y="175.9" fill="#FFFFFF" stroke="#162020" stroke-width="1.25" stroke-miterlimit="10" width="50.7" height="9.8"/>
	
		<rect x="196.5" y="250.2" fill="#3896E3" stroke="#162020" stroke-width="1.25" stroke-miterlimit="10" width="25.4" height="25.4"/>
	
		<rect x="196.5" y="180.5" fill="#3896E3" stroke="#162020" stroke-width="1.25" stroke-miterlimit="10" width="25.4" height="25.4"/>
	<path fill="#56ADF5" stroke="#162020" stroke-width="1.25" stroke-miterlimit="10" d="M331.4,176.6L331.4,176.6
		c-0.1,0-0.3-0.1-0.4-0.2l-5.7-6.9h-19.2v-40.6h50.6v40.6h-19.1l-5.9,6.9C331.6,176.6,331.5,176.6,331.4,176.6z"/>
	<path fill="#FFFFFF" stroke="#002138" stroke-width="1.25" stroke-linecap="round" stroke-linejoin="round" d="M331.4,161.1
		L331.4,161.1l11.4-11.4c2.9-2.9,2.9-7.6,0-10.5c0,0,0,0,0,0l0,0c-2.9-2.9-7.6-2.9-10.5,0l-0.9,0.9l0,0l-0.9-0.9
		c-2.9-2.9-7.6-2.9-10.5,0l0,0c-2.9,2.9-2.9,7.6,0,10.5L331.4,161.1L331.4,161.1L331.4,161.1z"/>
	<path fill="#FFFFFF" stroke="#162020" stroke-width="1.25" stroke-miterlimit="10" d="M323.8,356.7L323.8,356.7
		c-0.1,0-0.3-0.1-0.4-0.2l-5.7-6.9h-26.8V309h65.8v40.6H330l-5.9,6.9C324,356.6,323.9,356.7,323.8,356.7z"/>
	<circle fill="#3896E3" stroke="#162020" stroke-width="1.25" stroke-miterlimit="10" cx="309.2" cy="329.2" r="3.1"/>
	<circle fill="#3896E3" stroke="#162020" stroke-width="1.25" stroke-miterlimit="10" cx="322.9" cy="329.2" r="3.1"/>
	<circle fill="#3896E3" stroke="#162020" stroke-width="1.25" stroke-miterlimit="10" cx="336.5" cy="329.2" r="3.1"/>
	
		<rect x="370.9" y="66.3" fill="#FFFFFF" stroke="#162020" stroke-width="1.25" stroke-miterlimit="10" width="184.9" height="138.6"/>
	
		<rect x="382.9" y="102.8" fill="#3896E3" stroke="#162020" stroke-width="1.25" stroke-miterlimit="10" width="160.8" height="89.5"/>
	<circle fill="#3896E3" stroke="#162020" stroke-width="1.25" stroke-miterlimit="10" cx="391.8" cy="86" r="8.9"/>
	<line fill="none" stroke="#162020" stroke-width="1.25" stroke-miterlimit="10" x1="408.9" y1="85.2" x2="466.7" y2="85.2"/>
	<path fill="#FFFFFF" d="M453.5,169.9c19.9,0,30.7-16.5,30.7-30.7c0-0.5,0-0.9,0-1.4c2.1-1.5,3.9-3.4,5.4-5.6
		c-2,0.9-4.1,1.4-6.2,1.7c2.3-1.4,4-3.5,4.8-6c-2.1,1.3-4.4,2.1-6.9,2.6c-4.1-4.4-10.9-4.6-15.3-0.5c-2.2,2-3.4,4.9-3.4,7.9
		c0,0.8,0.1,1.7,0.3,2.5c-8.7-0.4-16.8-4.5-22.3-11.3c-2.9,4.9-1.4,11.3,3.3,14.4c-1.7,0-3.4-0.5-4.9-1.4c0,0,0,0.1,0,0.1
		c0,5.1,3.6,9.6,8.7,10.6c-0.9,0.3-1.9,0.4-2.9,0.4c-0.7,0-1.3-0.1-2-0.2c1.4,4.4,5.5,7.4,10.1,7.5c-4.5,3.5-10.3,5.1-16,4.5
		C442,168.2,447.7,169.9,453.5,169.9"/>
	
		<ellipse transform="matrix(0.1602 -0.9871 0.9871 0.1602 189.0517 773.1835)" fill="#56ADF5" stroke="#162020" stroke-width="1.25" stroke-miterlimit="10" cx="548.9" cy="275.5" rx="44.6" ry="44.7"/>
	<path fill="#162020" d="M570.1,285.7h-1.5v-19.9c0-10.9-8.8-19.7-19.7-19.7c-10.9,0-19.7,8.8-19.7,19.7v19.9h-1.5v-19.9
		c0-11.7,9.5-21.2,21.2-21.2s21.2,9.5,21.2,21.2c0,0,0,0,0,0L570.1,285.7z"/>
	<path fill="#162020" d="M562.5,304l-1-1.2c4.5-3.7,7.1-9.3,7.1-15.1v-10.9h1.5v10.9C570.1,294,567.3,300,562.5,304z"/>
	<path fill="#A1D2F8" d="M559.6,252.6c-0.7,0-1.3-0.2-1.9-0.6c-5.2-4-12.4-4.2-17.9-0.6c-1.4,0.9-3.3,0.5-4.3-0.9
		c-0.9-1.4-0.5-3.3,0.9-4.3l0,0c7.7-5,17.6-4.7,24.9,0.9c1.4,1,1.6,3,0.6,4.3C561.5,252.1,560.6,252.6,559.6,252.6L559.6,252.6z"/>
	<path fill="#162020" d="M559.6,253.4c-0.8,0-1.6-0.3-2.3-0.8c-5-3.8-11.8-4-17-0.6c-1.8,1.1-4.2,0.5-5.3-1.3c-1-1.7-0.6-4,1.1-5.1
		c7.9-5.2,18.3-4.8,25.8,0.9c1.7,1.3,2,3.7,0.8,5.4C562,252.8,560.8,253.4,559.6,253.4L559.6,253.4L559.6,253.4z M548.4,248.1
		c3.6,0,7,1.2,9.8,3.3c0.4,0.3,0.9,0.5,1.4,0.5l0,0c1.3,0,2.3-1,2.3-2.3c0-0.7-0.3-1.4-0.9-1.9c-7-5.3-16.7-5.7-24.1-0.8
		c-1.1,0.7-1.4,2.1-0.7,3.2c0.7,1.1,2.1,1.4,3.2,0.7c0,0,0,0,0,0C542.1,249,545.2,248.1,548.4,248.1L548.4,248.1z"/>
	<rect x="527.4" y="272.2" fill="#FFFFFF" width="5.1" height="14.5"/>
	<path fill="#162020" d="M533.2,287.5h-6.6v-16h6.6V287.5z M528.1,286h3.6v-13h-3.6V286z"/>
	<rect x="565.4" y="272.2" fill="#FFFFFF" width="5.1" height="14.5"/>
	<path fill="#162020" d="M571.2,287.5h-6.6v-16h6.6V287.5z M566.1,286h3.6v-13h-3.6V286z"/>
	<path fill="#A1D2F8" d="M534.6,266.9h1c1.3,0,2.3,1,2.3,2.3v20.4c0,1.3-1,2.3-2.3,2.3h-1c-1.3,0-2.3-1-2.3-2.3v-20.4
		C532.2,268,533.3,266.9,534.6,266.9z"/>
	<path fill="#162020" d="M535.1,292.8L535.1,292.8c-2.1,0-3.7-1.6-3.7-3.6v-19.4c0.1-2,1.8-3.5,3.8-3.4c1.8,0.1,3.3,1.6,3.4,3.4
		v19.4C538.7,291.2,537.1,292.8,535.1,292.8z M535.1,267.7c-1.1,0-2.1,0.9-2.1,2c0,0,0,0,0,0v19.4c0,1.1,0.9,2.1,2.1,2.1h0.1
		c1.1,0,2.1-0.9,2.1-2.1v-19.4C537.2,268.6,536.3,267.7,535.1,267.7L535.1,267.7z"/>
	<path fill="#A1D2F8" d="M562.1,267h1c1.3,0,2.3,1,2.3,2.3v20.4c0,1.3-1,2.3-2.3,2.3h-1c-1.3,0-2.3-1-2.3-2.3v-20.4
		C559.8,268,560.8,267,562.1,267z"/>
	<path fill="#162020" d="M562.7,292.8L562.7,292.8c-2.1,0-3.7-1.6-3.7-3.6v-19.4c0.1-2,1.8-3.5,3.8-3.4c1.8,0.1,3.3,1.6,3.4,3.4
		v19.4C566.2,291.2,564.6,292.8,562.7,292.8z M562.7,267.7c-1.1,0-2.1,0.9-2.1,2c0,0,0,0,0,0.1v19.4c0,1.1,0.9,2.1,2.1,2.1h0.1
		c1.1,0,2.1-0.9,2.1-2.1v-19.4C564.7,268.6,563.8,267.7,562.7,267.7L562.7,267.7z"/>
	<circle fill="#FFFFFF" cx="560.1" cy="304.7" r="3.6"/>
	<path fill="#002138" d="M560.1,309.1c-2.4,0-4.4-1.9-4.4-4.3c0-2.4,1.9-4.4,4.3-4.4s4.4,1.9,4.4,4.3c0,0,0,0,0,0
		C564.4,307.1,562.5,309.1,560.1,309.1z M560.1,301.9c-1.6,0-2.8,1.3-2.8,2.8s1.3,2.8,2.8,2.8c1.6,0,2.8-1.3,2.8-2.8
		C562.9,303.2,561.6,301.9,560.1,301.9L560.1,301.9z"/>
</g>
</svg>
